<?xml version="1.0" encoding="UTF-8" standalone="no"?>
<!-- Created with Inkscape (http://www.inkscape.org/) -->

<svg
   width="15.160057mm"
   height="20.000006mm"
   viewBox="0 0 15.160057 20.000005"
   version="1.1"
   id="svg1"
   xml:space="preserve"
   sodipodi:docname="hold_left_click.svg"
   inkscape:version="1.3.2 (091e20e, 2023-11-25, custom)"
   xmlns:inkscape="http://www.inkscape.org/namespaces/inkscape"
   xmlns:sodipodi="http://sodipodi.sourceforge.net/DTD/sodipodi-0.dtd"
   xmlns="http://www.w3.org/2000/svg"
   xmlns:svg="http://www.w3.org/2000/svg"><sodipodi:namedview
     id="namedview1"
     pagecolor="#ffffff"
     bordercolor="#000000"
     borderopacity="0.25"
     inkscape:showpageshadow="2"
     inkscape:pageopacity="0.0"
     inkscape:pagecheckerboard="0"
     inkscape:deskcolor="#d1d1d1"
     inkscape:document-units="mm"
     inkscape:zoom="23.878639"
     inkscape:cx="28.644849"
     inkscape:cy="37.795286"
     inkscape:window-width="3840"
     inkscape:window-height="2066"
     inkscape:window-x="-11"
     inkscape:window-y="-11"
     inkscape:window-maximized="1"
     inkscape:current-layer="svg1" /><defs
     id="defs1" /><rect
     style="fill:#000000;fill-opacity:1;stroke:#f0f0f0;stroke-width:0.640281;stroke-opacity:1"
     id="rect192"
     width="14.519789"
     height="19.359718"
     x="0.32014507"
     y="0.32013944"
     rx="5.8079157" /><rect
     style="fill:#000000;fill-opacity:1;stroke:#f0f0f0;stroke-width:0.640281;stroke-opacity:1"
     id="rect193"
     width="2.9039578"
     height="4.8399296"
     x="6.128046"
     y="5.7168169"
     rx="1.4519789" /><path
     style="fill:#f0f0f0;fill-opacity:1;stroke:#f0f0f0;stroke-width:0.640281;stroke-opacity:1"
     d="M 8.9699094,8.1952054 H 14.750697"
     id="path195" /><path
     style="fill:#f0f0f0;fill-opacity:1;stroke:#f0f0f0;stroke-width:0.640281;stroke-opacity:1"
     d="M 0.27270115,8.1952054 H 6.0534889"
     id="path196" /><path
     style="fill:#f0f0f0;fill-opacity:1;stroke:#f0f0f0;stroke-width:0.640281;stroke-opacity:1"
     d="M 7.5800511,0.33125637 V 5.5912459"
     id="path197" /><path
     style="fill:#ffff00;fill-opacity:1;stroke:#000000;stroke-width:0.00779352"
     d="m 0.64692451,6.8297766 c 0.00242,-1.0945743 0.00484,-1.1035064 0.0411394,-1.4008934 C 0.89182495,3.8164606 1.8086286,2.3714658 3.1814746,1.4991822 3.8739476,1.0592011 4.6502965,0.78242009 5.4722133,0.68250216 5.7209131,0.6522768 5.8011591,0.64951804 6.5307543,0.6459365 l 0.7228435,-0.003872 v 2.3895967 c 0,1.9052044 -0.00191,2.390071 -0.00968,2.3919731 C 7.0040994,5.4822942 6.937381,5.5049209 6.7866898,5.578875 6.3337934,5.8011488 5.988537,6.2258284 5.863328,6.7146976 5.8112988,6.9179746 5.8098468,6.9372134 5.8059749,7.4256542 l -0.00242,0.4422825 H 3.2240902 0.64460135 Z"
     id="path205" /></svg>
