<?xml version="1.0" encoding="UTF-8" standalone="no"?>
<!-- Created with Inkscape (http://www.inkscape.org/) -->

<svg
   width="15.160089mm"
   height="19.99999mm"
   viewBox="0 0 15.160089 19.99999"
   version="1.1"
   id="svg1"
   xml:space="preserve"
   sodipodi:docname="left_click.svg"
   inkscape:version="1.3.2 (091e20e, 2023-11-25, custom)"
   xmlns:inkscape="http://www.inkscape.org/namespaces/inkscape"
   xmlns:sodipodi="http://sodipodi.sourceforge.net/DTD/sodipodi-0.dtd"
   xmlns="http://www.w3.org/2000/svg"
   xmlns:svg="http://www.w3.org/2000/svg"><sodipodi:namedview
     id="namedview1"
     pagecolor="#ffffff"
     bordercolor="#000000"
     borderopacity="0.25"
     inkscape:showpageshadow="2"
     inkscape:pageopacity="0.0"
     inkscape:pagecheckerboard="0"
     inkscape:deskcolor="#d1d1d1"
     inkscape:document-units="mm"
     inkscape:zoom="23.878657"
     inkscape:cx="28.644827"
     inkscape:cy="37.795258"
     inkscape:window-width="3840"
     inkscape:window-height="2066"
     inkscape:window-x="-11"
     inkscape:window-y="-11"
     inkscape:window-maximized="1"
     inkscape:current-layer="svg1" /><defs
     id="defs1" /><rect
     style="fill:#000000;fill-opacity:1;stroke:#f0f0f0;stroke-width:0.640281;stroke-opacity:1"
     id="rect171"
     width="14.519789"
     height="19.359718"
     x="0.32014754"
     y="0.32012782"
     rx="5.8079157" /><rect
     style="fill:#000000;fill-opacity:1;stroke:#f0f0f0;stroke-width:0.640281;stroke-opacity:1"
     id="rect172"
     width="2.9039578"
     height="4.8399296"
     x="6.1281223"
     y="5.716805"
     rx="1.4519789" /><path
     style="fill:#f0f0f0;fill-opacity:1;stroke:#f0f0f0;stroke-width:0.640281;stroke-opacity:1"
     d="M 8.9699773,8.1951942 H 14.750765"
     id="path172" /><path
     style="fill:#f0f0f0;fill-opacity:1;stroke:#f0f0f0;stroke-width:0.640281;stroke-opacity:1"
     d="M 0.272769,8.1951942 H 6.0535567"
     id="path173" /><path
     style="fill:#f0f0f0;fill-opacity:1;stroke:#f0f0f0;stroke-width:0.640281;stroke-opacity:1"
     d="M 7.5801189,0.33124515 V 5.5912347"
     id="path174" /><path
     style="fill:#ffffff;fill-opacity:1;stroke:#000000;stroke-width:0.0110218"
     d="M 0.6508885,6.7876241 C 0.6557285,5.6110784 0.6557285,5.6162135 0.7251814,5.2017147 1.0512959,3.2671585 2.3954895,1.6540003 4.2453348,0.9772475 4.5667545,0.85966141 4.9338148,0.76513758 5.2729245,0.71266307 5.6306437,0.65727007 5.6959343,0.65388212 6.4923931,0.6487034 l 0.7577636,-0.005082 -0.00242,2.3882923 -0.00242,2.3882899 -0.099219,0.025361 C 6.9343513,5.4997237 6.7221688,5.5968369 6.5484637,5.7190887 6.4243195,5.8064494 6.2174851,6.0133177 6.1301244,6.137428 5.9975103,6.3258464 5.8946618,6.5620568 5.8381073,6.8086173 c -0.02178,0.094475 -0.0242,0.1413502 -0.028314,0.5794751 l -0.00484,0.4766895 H 3.2260456 0.64716176 Z"
     id="path175" /></svg>
